<svg width="140" height="108" viewBox="0 0 140 108" fill="none" xmlns="http://www.w3.org/2000/svg">
<path d="M122.909 0.72876H17.1198C7.67639 0.72876 0 8.40515 0 17.8486V90.1515C0 99.5949 7.67639 107.271 17.1198 107.271H122.88C132.324 107.271 140 99.5949 140 90.1515V17.8775C140.029 8.43412 132.353 0.72876 122.909 0.72876ZM132.208 90.1515C132.208 95.2787 128.036 99.4501 122.909 99.4501H17.1198C11.9926 99.4501 7.82123 95.2787 7.82123 90.1515V17.8775C7.82123 12.7503 11.9926 8.57896 17.1198 8.57896H122.88C128.007 8.57896 132.179 12.7503 132.179 17.8775V90.1515H132.208Z" fill="white" fill-opacity="0.4"/>
<path d="M88.293 53.1021L122.533 22.3965C124.126 20.9481 124.271 18.4859 122.822 16.8637C121.374 15.2705 118.912 15.1257 117.289 16.574L70.0724 58.9535L60.8608 50.7267C60.8318 50.6978 60.8028 50.6688 60.8028 50.6398C60.6 50.4371 60.3973 50.2633 60.1655 50.0895L22.6816 16.5451C21.0594 15.0967 18.5972 15.2415 17.1488 16.8637C15.7004 18.4859 15.8452 20.9481 17.4674 22.3965L52.1126 53.3628L17.6123 85.6616C16.048 87.1389 15.9611 89.6011 17.4385 91.1944C18.2206 92.0054 19.2634 92.44 20.3062 92.44C21.2622 92.44 22.2181 92.0924 22.9712 91.3971L57.993 58.6349L67.4943 67.1224C68.2475 67.7886 69.1744 68.1073 70.1014 68.1073C71.0284 68.1073 71.9843 67.7596 72.7085 67.0934L82.4705 58.3452L117.289 91.4261C118.043 92.1503 119.028 92.4979 119.983 92.4979C121.026 92.4979 122.04 92.0924 122.822 91.2813C124.3 89.717 124.242 87.2258 122.677 85.7485L88.293 53.1021Z" fill="white" fill-opacity="0.4"/>
</svg>
